# Blender 4.3.0
# www.blender.org
mtllib inlet.mtl
o valve_fluid.001
v 0.000000 0.015000 0.108000
v 0.003882 0.014489 0.108000
v 0.007500 0.012990 0.108000
v 0.010607 0.010607 0.108000
v 0.012990 0.007500 0.108000
v 0.014489 0.003882 0.108000
v 0.015000 0.000000 0.108000
v 0.014489 -0.003882 0.108000
v 0.012990 -0.007500 0.108000
v 0.010607 -0.010607 0.108000
v 0.007500 -0.012990 0.108000
v 0.003882 -0.014489 0.108000
v 0.000000 -0.015000 0.108000
v -0.003882 -0.014489 0.108000
v -0.007500 -0.012990 0.108000
v -0.010607 -0.010607 0.108000
v -0.012990 -0.007500 0.108000
v -0.014489 -0.003882 0.108000
v -0.015000 0.000000 0.108000
v -0.014489 0.003882 0.108000
v -0.012990 0.007500 0.108000
v -0.010607 0.010607 0.108000
v -0.007500 0.012990 0.108000
v -0.003882 0.014489 0.108000
vn -0.0000 -0.0000 1.0000
vt 0.000000 -0.620161
vt -0.388229 -0.671272
vt 0.388229 -0.671272
vt 0.750000 -0.821122
vt -0.750000 -0.821122
vt 1.060660 -1.059500
vt -1.060660 -1.059500
vt 1.299038 -1.370161
vt -1.299038 -1.370161
vt 1.448889 -1.731932
vt -1.448889 -1.731932
vt 1.500000 -2.120161
vt -1.500000 -2.120161
vt 1.448889 -2.508389
vt -1.448889 -2.508389
vt 1.299038 -2.870161
vt -1.299038 -2.870161
vt 1.060660 -3.180821
vt -1.060660 -3.180821
vt 0.750000 -3.419199
vt -0.750000 -3.419199
vt 0.388229 -3.569049
vt -0.388229 -3.569049
vt -0.000000 -3.620161
s 1
usemtl Steel_-_Satin.002
f 1/1/1 24/2/1 2/3/1
f 2/3/1 24/2/1 3/4/1
f 3/4/1 24/2/1 23/5/1
f 3/4/1 23/5/1 4/6/1
f 4/6/1 23/5/1 22/7/1
f 4/6/1 22/7/1 5/8/1
f 5/8/1 22/7/1 21/9/1
f 5/8/1 21/9/1 6/10/1
f 6/10/1 21/9/1 20/11/1
f 6/10/1 20/11/1 7/12/1
f 7/12/1 20/11/1 19/13/1
f 7/12/1 19/13/1 8/14/1
f 8/14/1 19/13/1 18/15/1
f 8/14/1 18/15/1 9/16/1
f 9/16/1 18/15/1 17/17/1
f 9/16/1 17/17/1 10/18/1
f 10/18/1 17/17/1 16/19/1
f 10/18/1 16/19/1 11/20/1
f 11/20/1 16/19/1 15/21/1
f 11/20/1 15/21/1 12/22/1
f 12/22/1 15/21/1 14/23/1
f 12/22/1 14/23/1 13/24/1
