# Blender 4.3.0
# www.blender.org
mtllib outlet.mtl
o valve_fluid.002
v 0.000000 0.015000 -0.108000
v -0.003882 0.014489 -0.108000
v -0.007500 0.012990 -0.108000
v -0.010607 0.010607 -0.108000
v -0.012990 0.007500 -0.108000
v -0.014489 0.003882 -0.108000
v -0.015000 -0.000000 -0.108000
v -0.014489 -0.003882 -0.108000
v -0.012990 -0.007500 -0.108000
v -0.010607 -0.010607 -0.108000
v -0.007500 -0.012990 -0.108000
v -0.003882 -0.014489 -0.108000
v 0.007500 -0.012990 -0.108000
v 0.010607 -0.010607 -0.108000
v 0.012990 -0.007500 -0.108000
v 0.014489 -0.003882 -0.108000
v 0.015000 -0.000000 -0.108000
v 0.014489 0.003882 -0.108000
v 0.012990 0.007500 -0.108000
v 0.010607 0.010607 -0.108000
v 0.007500 0.012990 -0.108000
v 0.003882 0.014489 -0.108000
vn -0.0000 -0.0000 -1.0000
vt 0.000000 1.500000
vt -0.388229 1.448889
vt 0.388229 1.448889
vt 0.750000 1.299038
vt -0.750000 1.299038
vt 1.060660 1.060660
vt -1.060660 1.060660
vt 1.299038 0.750000
vt -1.299038 0.750000
vt 1.448889 0.388229
vt -1.448889 0.388229
vt 1.500000 -0.000000
vt -1.500000 0.000000
vt 1.448889 -0.388229
vt -1.448889 -0.388229
vt 1.299038 -0.750000
vt -1.299038 -0.750000
vt 1.060660 -1.060660
vt -1.060660 -1.060660
vt 0.750000 -1.299038
vt -0.750000 -1.299038
vt 0.388229 -1.448889
s 1
usemtl Steel_-_Satin.002
f 1/1/1 22/2/1 2/3/1
f 2/3/1 22/2/1 3/4/1
f 3/4/1 22/2/1 21/5/1
f 3/4/1 21/5/1 4/6/1
f 4/6/1 21/5/1 20/7/1
f 4/6/1 20/7/1 5/8/1
f 5/8/1 20/7/1 19/9/1
f 5/8/1 19/9/1 6/10/1
f 6/10/1 19/9/1 18/11/1
f 6/10/1 18/11/1 7/12/1
f 7/12/1 18/11/1 17/13/1
f 7/12/1 17/13/1 8/14/1
f 8/14/1 17/13/1 16/15/1
f 8/14/1 16/15/1 9/16/1
f 9/16/1 16/15/1 15/17/1
f 9/16/1 15/17/1 10/18/1
f 10/18/1 15/17/1 14/19/1
f 10/18/1 14/19/1 11/20/1
f 11/20/1 14/19/1 13/21/1
f 11/20/1 13/21/1 12/22/1
